<?xml version="1.0" standalone="no"?>
<!DOCTYPE svg PUBLIC "-//W3C//DTD SVG 20010904//EN"
 "http://www.w3.org/TR/2001/REC-SVG-20010904/DTD/svg10.dtd">
<svg version="1.0" xmlns="http://www.w3.org/2000/svg"
 width="300.000000pt" height="300.000000pt" viewBox="0 0 300.000000 300.000000"
 preserveAspectRatio="xMidYMid meet">
<metadata>
Created by potrace 1.14, written by Peter Selinger 2001-2017
</metadata>
<g transform="translate(0.000000,300.000000) scale(0.100000,-0.100000)"
fill="#000000" stroke="none">
<path d="M427 2581 c9 -11 9 -19 1 -35 -6 -12 -11 -22 -10 -23 1 -2 2 -12 2
-24 0 -13 -4 -18 -12 -13 -10 6 -10 5 -2 -7 8 -9 12 -65 13 -154 1 -77 3 -166
4 -197 3 -39 0 -55 -7 -51 -6 3 -3 -2 6 -12 14 -15 20 -16 32 -6 16 13 12 36
-4 26 -5 -3 -11 -2 -13 3 -3 4 5 12 17 18 22 10 23 9 21 -18 -1 -15 1 -28 6
-28 4 0 7 -18 6 -40 -2 -29 1 -40 11 -40 12 0 12 -3 1 -17 -7 -10 -9 -15 -4
-10 4 4 16 0 26 -9 13 -12 19 -12 25 -3 4 7 3 10 -3 6 -6 -4 -16 0 -23 8 -7 8
-11 15 -9 16 28 6 51 3 60 -8 6 -7 16 -10 21 -7 6 4 5 10 -3 15 -10 6 -10 9
-2 9 6 0 15 -5 18 -10 4 -6 11 -8 16 -5 5 4 9 1 9 -4 0 -10 -14 -15 -32 -12
-11 1 -10 -11 2 -29 6 -10 10 -11 10 -2 0 6 5 12 11 12 5 0 8 -4 5 -8 -2 -4
-1 -14 5 -22 5 -8 9 -10 9 -4 0 6 12 12 26 12 22 0 25 -4 21 -24 -2 -14 1 -28
7 -31 16 -10 46 -11 40 -1 -3 4 0 8 5 8 6 0 11 -5 11 -11 0 -5 5 -7 10 -4 6 3
10 0 10 -7 0 -10 2 -10 9 1 7 11 9 11 14 0 4 -9 8 -10 14 -4 4 6 17 11 28 13
l20 4 -20 -16 c-20 -15 -20 -15 3 -9 12 3 25 9 28 14 7 12 24 11 24 -2 0 -5
-6 -7 -12 -3 -7 4 -5 -2 5 -13 14 -16 15 -22 5 -26 -7 -2 -1 -4 15 -4 15 0 27
5 27 11 0 6 4 4 10 -4 6 -9 5 -17 -3 -22 -7 -4 -8 -8 -2 -8 6 0 16 5 23 12 9
9 12 9 12 -1 0 -10 3 -11 14 -2 8 7 17 8 20 3 7 -11 55 -10 74 1 7 5 12 4 12
-2 0 -6 7 -11 15 -11 8 0 15 6 15 13 0 8 2 9 8 1 4 -6 28 -11 53 -11 26 0 51
-3 56 -6 11 -7 11 -46 -1 -65 -5 -8 -3 -11 5 -10 9 2 13 -7 11 -27 -2 -22 3
-34 19 -43 11 -8 18 -9 14 -3 -3 6 0 11 8 11 10 0 13 -7 10 -20 -6 -22 -22
-22 -40 0 -6 8 -15 12 -19 7 -4 -4 -2 -7 5 -7 7 0 9 -4 6 -10 -3 -5 -1 -10 5
-10 6 0 8 -5 4 -12 -6 -10 -4 -10 8 0 14 11 18 10 27 -5 5 -11 6 -25 1 -33 -4
-7 -6 -20 -2 -28 3 -9 1 -13 -5 -9 -5 4 -19 0 -29 -9 -18 -15 -18 -15 2 -5 30
14 54 -12 32 -35 -12 -12 -9 -26 4 -18 7 4 8 3 4 -5 -12 -19 -18 -63 -7 -57 6
4 8 -3 6 -16 -3 -13 -10 -25 -15 -26 -7 -3 -7 -9 1 -18 7 -8 9 -17 5 -21 -3
-3 -6 0 -6 8 0 12 -2 11 -11 -1 -9 -13 -10 -12 -5 2 3 10 1 20 -4 23 -6 4 -10
-1 -10 -9 0 -9 -8 -16 -17 -16 -15 0 -16 -2 -3 -10 10 -6 11 -10 3 -10 -7 0
-13 -5 -13 -11 0 -5 4 -8 9 -5 5 4 8 -2 7 -11 -2 -12 -14 -20 -37 -23 -30 -4
-35 -9 -39 -40 -5 -32 -8 -35 -35 -33 -29 2 -29 1 -10 -14 19 -15 19 -15 -5
-9 -25 7 -25 7 -5 -10 20 -16 20 -16 -3 -11 -12 3 -20 1 -17 -4 3 -5 1 -17 -4
-27 -6 -11 -7 -23 -3 -27 10 -9 10 -55 0 -49 -4 3 -8 1 -8 -5 0 -5 8 -15 18
-20 10 -6 12 -11 4 -11 -8 0 -10 -5 -6 -12 5 -8 0 -7 -11 2 -17 14 -18 13 -12
-2 9 -25 0 -22 -14 3 -9 17 -8 20 3 14 7 -5 10 -5 6 0 -4 4 -3 16 2 26 7 12 6
20 -2 25 -7 5 -8 3 -3 -6 6 -10 4 -12 -9 -7 -9 4 -15 3 -11 -2 3 -5 -1 -12 -7
-14 -10 -4 -9 -6 1 -6 11 -1 11 -4 0 -18 -10 -11 -10 -14 -1 -9 6 4 12 2 12
-3 0 -6 -5 -11 -11 -11 -6 0 -9 -6 -6 -12 2 -7 10 -12 16 -10 7 1 10 -2 6 -8
-3 -6 -11 -8 -16 -5 -5 4 -9 -1 -9 -10 0 -9 5 -13 11 -10 7 5 7 1 0 -14 -6
-12 -16 -30 -22 -42 -6 -12 -6 -18 -1 -15 5 3 16 -2 23 -11 12 -14 12 -16 0
-8 -11 6 -13 3 -9 -13 4 -12 2 -22 -4 -22 -5 0 -6 -5 -2 -11 4 -7 8 -27 10
-46 2 -29 0 -32 -12 -22 -12 10 -13 9 -8 -5 3 -9 10 -16 14 -16 5 0 6 -9 3
-20 -3 -11 -10 -17 -16 -13 -6 3 -7 1 -3 -6 4 -6 11 -9 16 -6 5 3 7 -13 6 -35
-2 -29 1 -40 11 -40 8 0 11 5 8 10 -3 6 -1 10 5 10 7 0 9 -8 5 -19 -4 -14 -1
-18 11 -17 9 0 19 -5 21 -11 3 -7 0 -13 -7 -13 -6 0 -8 6 -5 13 4 6 0 3 -9 -7
-8 -10 -13 -23 -9 -29 3 -5 -4 -7 -18 -3 -20 6 -21 5 -6 -4 19 -12 41 -4 32
11 -4 5 -2 9 3 9 16 0 22 -13 12 -25 -7 -9 -6 -16 5 -25 10 -8 12 -17 5 -30
-8 -14 -5 -17 13 -16 12 1 28 -3 36 -8 11 -8 13 -8 7 2 -4 6 -2 12 3 12 6 0
11 -4 11 -10 0 -11 28 -9 48 3 7 5 12 4 12 -2 0 -6 -4 -12 -10 -12 -11 -2 -25
-5 -37 -9 -5 -1 -17 -2 -28 -2 -15 1 -16 -1 -4 -4 10 -3 19 -14 22 -25 5 -17
9 -19 26 -10 14 8 22 8 26 1 4 -7 12 -7 18 -2 17 12 36 9 48 -8 9 -13 10 -12
5 3 -3 9 -1 17 4 17 6 0 10 -6 10 -12 0 -8 3 -9 8 -3 4 6 13 11 21 13 12 3 12
0 1 -13 -7 -8 -10 -18 -6 -22 3 -3 6 -2 6 4 0 5 12 15 27 22 24 11 25 10 13
-4 -11 -13 -10 -14 5 -9 14 6 16 4 10 -6 -5 -8 -4 -11 3 -6 5 3 12 1 14 -6 3
-7 7 -5 11 6 4 9 3 15 -2 12 -5 -3 -12 1 -15 9 -4 12 -2 13 13 6 10 -6 22 -7
26 -3 5 4 4 0 0 -8 -7 -12 -6 -13 6 -3 8 7 29 10 47 8 20 -3 32 0 32 7 0 9 3
9 12 0 16 -16 50 -15 67 1 8 7 11 7 8 1 -4 -7 2 -14 13 -17 11 -3 18 -1 14 4
-3 5 13 7 36 4 32 -4 40 -2 34 7 -5 8 -1 7 11 -2 11 -9 16 -10 11 -2 -4 6 -2
12 3 12 6 0 11 -4 11 -9 0 -10 46 -8 57 2 3 4 13 1 21 -6 13 -10 14 -9 7 2 -6
11 -4 13 10 7 15 -5 16 -4 5 9 -7 9 -16 12 -19 7 -3 -5 -14 -8 -24 -6 -10 1
-14 -2 -11 -8 5 -7 2 -8 -5 -4 -21 13 8 28 52 27 16 0 17 2 5 16 -11 14 -11
16 4 10 13 -4 15 -2 11 10 -5 13 -3 14 17 3 20 -11 22 -10 17 4 -3 8 -1 18 5
22 6 4 8 3 5 -2 -3 -6 -2 -16 3 -24 7 -10 10 1 10 35 2 114 5 174 9 170 2 -3
10 3 17 13 10 14 15 15 26 4 11 -11 10 -12 -4 -7 -11 4 -18 2 -18 -5 0 -6 4
-9 8 -6 8 4 8 -11 3 -59 -1 -5 -5 -4 -10 4 -6 9 -11 10 -15 2 -6 -9 7 -16 17
-8 2 1 11 -4 20 -11 14 -12 16 -11 11 10 -7 30 -7 38 -1 71 4 17 1 27 -6 27
-7 0 -6 4 3 10 13 8 12 10 -2 10 -10 0 -18 5 -18 11 0 5 -5 7 -11 3 -8 -5 -8
-1 0 14 6 12 19 25 29 31 9 5 13 13 9 18 -5 4 -22 -7 -38 -25 -16 -18 -29 -28
-29 -22 0 6 11 20 25 32 23 20 25 38 4 38 -6 0 -8 -4 -5 -9 3 -5 -1 -11 -9
-15 -21 -8 -19 -1 12 31 16 17 24 21 20 11 -3 -10 -2 -20 3 -23 10 -6 15 10
10 30 -1 6 -2 15 -1 20 7 55 6 113 -2 108 -5 -3 -7 0 -5 8 3 8 -2 23 -11 33
-15 18 -15 19 1 13 9 -3 19 0 21 7 4 9 -3 11 -21 8 -16 -3 -23 -1 -19 4 5 5
13 9 18 9 5 0 9 3 9 8 0 4 0 10 0 13 0 4 -6 1 -14 -5 -20 -16 -46 11 -39 40 5
17 3 20 -8 14 -11 -7 -11 -5 1 10 14 17 13 17 -10 10 -42 -13 -45 -11 -42 22
1 18 -3 33 -9 33 -5 0 -7 5 -4 10 3 6 2 10 -4 10 -5 0 -12 -6 -14 -12 -4 -10
-6 -10 -6 0 -1 6 -6 12 -12 12 -5 0 -8 -4 -5 -8 3 -5 -1 -9 -8 -9 -9 0 -12 13
-11 39 2 31 -1 38 -14 36 -9 -1 -26 7 -39 20 l-22 22 25 -2 c20 -2 24 -7 20
-23 -3 -11 -2 -14 1 -7 3 6 10 9 16 6 6 -4 5 3 -1 15 -10 17 -9 22 3 27 10 4
14 17 12 39 -3 24 0 32 9 29 7 -3 16 -1 19 4 7 13 60 6 64 -8 3 -7 10 -4 19 7
14 17 14 17 9 -1 -5 -16 -4 -17 8 -7 18 15 144 23 152 9 3 -5 12 -4 20 3 8 6
17 9 21 6 3 -4 12 1 20 11 7 9 13 13 12 7 -1 -5 -1 -17 1 -25 1 -11 4 -9 9 5
5 11 4 29 -1 40 -9 18 -8 18 11 -2 23 -24 28 -38 9 -27 -6 4 -8 3 -5 -4 9 -14
42 -8 42 7 0 7 8 18 17 25 10 7 15 16 11 19 -3 4 -3 7 2 7 4 0 14 -8 22 -17 8
-10 12 -12 8 -5 -10 20 4 33 25 22 13 -7 20 -6 22 1 4 13 70 19 78 7 3 -4 11
2 19 13 7 12 8 18 2 14 -6 -3 -11 -1 -11 4 0 6 0 14 0 19 0 4 8 8 17 9 10 1
28 3 40 5 12 1 19 7 15 13 -11 17 -11 35 -1 35 6 0 7 6 3 13 -4 6 -4 9 1 5 4
-4 15 -2 23 5 11 8 14 8 9 0 -4 -6 -3 -14 3 -18 5 -3 10 -1 10 5 0 6 4 9 8 6
9 -5 8 41 -1 51 -4 3 0 15 10 25 13 14 13 18 2 18 -11 0 -11 2 -1 9 7 4 12 14
10 21 -2 7 3 15 11 18 10 3 12 0 8 -12 -5 -12 -3 -15 6 -11 6 4 4 0 -5 -7 -15
-13 -15 -15 0 -26 16 -11 16 -11 0 -6 -10 4 -18 2 -18 -3 0 -6 12 -9 28 -7 37
3 36 2 23 17 -8 10 -7 17 2 27 8 8 8 11 1 7 -15 -9 -27 20 -12 29 7 5 8 2 3
-7 -7 -12 -5 -12 6 -1 12 11 12 14 -1 22 -10 7 -11 10 -2 10 6 0 12 5 12 11 0
5 -6 7 -12 4 -7 -4 -5 0 5 9 11 8 25 12 31 10 7 -3 19 2 26 11 11 13 10 19 -5
33 -11 10 -15 11 -10 3 6 -10 4 -12 -5 -6 -9 6 -11 4 -5 -4 6 -10 3 -10 -16 0
-15 7 -19 14 -11 17 6 2 12 8 12 13 0 6 -5 7 -12 3 -7 -5 -8 -3 -3 6 6 10 11
9 21 -4 7 -11 15 -13 18 -7 4 6 -2 16 -14 23 -25 16 -25 25 1 33 19 6 20 7 2
20 -10 7 -22 11 -27 8 -5 -4 -6 -1 -2 6 6 9 11 9 21 1 8 -7 18 -9 23 -6 5 3 8
-17 7 -44 -1 -28 2 -50 6 -50 4 0 6 29 6 64 -1 35 -5 62 -9 59 -5 -2 -8 1 -8
7 0 6 -5 8 -11 4 -8 -4 -7 -9 2 -15 8 -5 10 -9 4 -9 -5 0 -17 5 -25 10 -13 8
-13 10 -1 10 11 0 9 4 -5 15 -10 9 -13 14 -5 13 7 -2 16 3 19 11 2 8 0 11 -5
8 -5 -3 -9 6 -9 21 1 15 -4 26 -10 25 -6 -1 -11 4 -11 12 0 8 7 11 16 7 14 -5
14 -4 1 13 -9 11 -10 16 -2 11 6 -4 12 -3 12 2 0 5 -11 12 -25 14 -15 3 -22 1
-18 -5 4 -6 1 -7 -7 -2 -20 12 -60 12 -60 0 0 -5 -5 -3 -10 5 -5 8 -10 11 -10
5 0 -5 -13 -10 -30 -10 -16 0 -30 2 -30 5 0 12 -66 4 -77 -10 -6 -8 -15 -12
-19 -7 -4 4 -2 7 4 7 7 0 12 4 12 9 0 14 -34 8 -48 -9 -8 -8 -11 -10 -8 -4 3
7 -1 14 -9 18 -8 3 -15 0 -15 -7 0 -8 -4 -6 -10 3 -7 11 -10 11 -10 2 0 -10
-5 -10 -21 -1 -17 9 -20 8 -14 -2 6 -8 4 -10 -5 -4 -19 12 -80 12 -80 0 0 -7
-3 -7 -8 0 -7 11 -92 14 -92 4 0 -3 -12 -4 -26 -1 -21 4 -25 2 -19 -9 6 -11 5
-12 -6 -1 -15 14 -55 16 -63 3 -4 -5 0 -12 6 -15 7 -3 2 -3 -12 0 -20 5 -23 4
-12 -7 16 -17 15 -26 -2 -26 -8 0 -12 6 -9 14 4 9 -7 6 -31 -8 -20 -12 -40
-19 -43 -15 -4 3 -1 6 6 6 7 0 9 5 6 11 -5 7 -12 6 -23 -3 -20 -17 -67 -18
-67 -1 0 6 -4 15 -9 20 -5 5 -6 3 -2 -4 4 -7 2 -13 -4 -13 -6 0 -8 -5 -4 -11
3 -6 -9 -3 -27 7 -19 10 -36 18 -39 17 -3 -1 -5 13 -4 31 1 19 -2 40 -7 47 -7
10 -8 6 -5 -12 3 -16 -1 -26 -9 -26 -7 0 -12 13 -11 34 1 22 5 32 13 29 7 -3
15 -1 17 3 3 5 -4 8 -16 7 -18 -1 -22 -7 -23 -31 0 -16 -4 -29 -10 -27 -5 1
-9 14 -8 27 1 14 -1 25 -6 25 -4 0 -8 7 -8 15 0 8 5 15 10 15 5 0 3 8 -4 17
-12 15 -12 16 1 8 12 -6 13 -5 3 5 -7 7 -26 13 -43 12 -27 -1 -30 1 -19 14 10
13 10 17 -1 24 -9 5 -5 8 12 7 19 -2 25 -7 23 -19 -2 -10 0 -18 6 -18 15 0 10
47 -7 54 -10 4 -13 2 -8 -6 5 -8 2 -9 -10 -5 -10 4 -21 7 -24 7 -4 0 0 5 8 10
13 8 12 10 -4 10 -19 0 -19 0 -1 13 14 11 15 16 5 22 -9 6 -11 4 -5 -5 5 -8 4
-11 -3 -6 -6 4 -9 13 -6 20 3 7 -2 19 -11 26 -13 11 -15 10 -9 -3 4 -13 0 -15
-23 -12 -15 2 -31 4 -35 4 -5 1 -8 6 -8 12 0 8 4 8 14 0 11 -9 16 -9 22 0 4 7
3 9 -3 6 -6 -4 -16 0 -23 8 -10 12 -9 15 6 15 16 0 16 2 4 10 -9 6 -17 5 -22
-3 -5 -8 -8 -5 -8 8 0 16 -2 17 -10 5 -6 -9 -5 -17 2 -21 7 -4 7 -9 -1 -13
-13 -8 -26 18 -16 34 9 14 -8 13 -24 -2 -11 -11 -12 -10 -6 0 5 10 0 12 -24 9
-17 -3 -34 -1 -37 4 -4 6 -11 6 -19 -1 -9 -7 -16 -6 -24 4 -7 8 -20 12 -29 9
-22 -8 -13 1 15 16 20 10 22 9 16 -6 -4 -12 1 -9 15 7 12 14 21 20 22 14 0 -5
-6 -16 -12 -24 -7 -8 -9 -11 -4 -7 5 4 16 1 25 -5 13 -10 14 -10 4 2 -8 8 -9
19 -3 30 7 14 4 16 -23 15 -18 0 -38 -5 -46 -9 -10 -6 -12 -5 -7 2 5 8 0 12
-13 12 -11 0 -25 -8 -30 -17 -14 -24 -14 -7 0 19 9 16 8 19 -3 12 -20 -13 -61
-13 -77 0 -10 7 -13 7 -8 0 4 -7 -5 -11 -23 -11 -18 0 -27 4 -23 11 5 8 3 8
-8 0 -9 -7 -111 -10 -304 -8 -159 1 -294 2 -300 3 -5 1 1 8 15 15 14 8 29 12
33 9 10 -6 27 15 27 32 0 6 -5 3 -10 -5 -12 -19 -40 -19 -65 0 -14 10 -16 10
-8 1z m773 -96 c-7 -8 -16 -15 -21 -15 -5 0 -1 8 9 18 20 22 31 19 12 -3z
m213 -80 c-3 -9 -8 -14 -10 -11 -3 3 -2 9 2 15 9 16 15 13 8 -4z m-23 -5 c0
-5 -5 -10 -11 -10 -5 0 -7 5 -4 10 3 6 8 10 11 10 2 0 4 -4 4 -10z m-939 -243
c-6 -8 -7 -18 -3 -22 4 -5 1 -5 -6 -1 -10 6 -10 11 -1 22 6 8 14 14 16 14 3 0
0 -6 -6 -13z m1491 -89 c-8 -8 -9 -4 -5 13 4 13 8 18 11 10 2 -7 -1 -18 -6
-23z m43 4 c-3 -3 -11 0 -18 7 -9 10 -8 11 6 5 10 -3 15 -9 12 -12z m240 8 c3
-5 1 -10 -4 -10 -6 0 -11 5 -11 10 0 6 2 10 4 10 3 0 8 -4 11 -10z m-1770 -10
c-3 -5 -12 -10 -18 -10 -7 0 -6 4 3 10 19 12 23 12 15 0z m1220 -28 c-3 -3
-11 0 -18 7 -9 10 -8 11 6 5 10 -3 15 -9 12 -12z m-940 -142 c3 -5 11 -8 18
-6 7 1 8 1 4 -2 -4 -2 -3 -10 4 -18 10 -12 9 -13 -5 -8 -9 3 -16 11 -16 17 0
6 -7 1 -16 -11 -20 -29 -37 -19 -22 13 12 26 23 31 33 15z m278 -74 c-3 -4 4
-5 16 -1 13 4 21 2 21 -5 0 -6 -5 -8 -11 -5 -6 4 -9 0 -7 -11 2 -12 -3 -19
-12 -19 -8 0 -14 8 -14 18 1 9 -4 17 -12 17 -8 0 -13 -5 -11 -11 3 -17 -31
-19 -37 -2 -5 12 -9 13 -20 4 -10 -8 -16 -8 -25 2 -6 8 -9 16 -7 18 8 8 124 4
119 -5z m63 -23 c-6 -12 -15 -23 -19 -23 -4 0 -3 8 2 19 6 10 8 20 6 23 -3 3
1 5 8 5 11 0 11 -6 3 -24z m37 -4 c-8 -8 -13 -7 -18 2 -6 8 -4 10 5 4 10 -6
12 -4 6 11 -6 15 -5 17 5 7 9 -10 10 -16 2 -24z m47 1 c8 -5 11 -10 5 -10 -5
0 -17 5 -25 10 -8 5 -10 10 -5 10 6 0 17 -5 25 -10z m1496 -9 c-8 -12 -46 -10
-46 2 0 5 9 5 20 2 13 -4 20 -2 20 6 0 7 3 10 6 6 3 -3 3 -10 0 -16z m-1366
-101 c0 -5 -5 -10 -12 -12 -7 -3 -5 -7 6 -11 9 -4 15 -3 11 2 -3 5 -1 12 4 15
13 9 7 -19 -8 -38 -18 -21 -25 -14 -26 28 0 23 3 32 12 29 7 -3 13 -9 13 -13z
m1297 -17 c-4 -3 -1 -13 6 -22 11 -14 10 -14 -5 -2 -16 12 -16 31 -1 31 4 0 3
-3 0 -7z m-203 -199 c3 -8 2 -12 -4 -9 -6 3 -10 10 -10 16 0 14 7 11 14 -7z
m-173 -68 c-7 -8 -19 -12 -27 -9 -12 4 -10 8 8 18 28 14 35 11 19 -9z m-124
-11 c0 -8 -4 -12 -9 -9 -5 3 -6 10 -3 15 9 13 12 11 12 -6z m-321 -75 c-2 -41
-17 -54 -42 -35 -18 15 -18 15 0 8 15 -5 17 -3 11 8 -8 12 -6 12 8 1 15 -12
16 -11 12 17 -2 17 0 31 5 31 4 0 7 -13 6 -30z m170 -319 c-3 -5 3 -20 14 -33
21 -27 16 -45 -7 -27 -9 8 -13 8 -13 1 0 -11 19 -27 32 -27 3 0 10 -3 14 -7 3
-4 -3 -6 -14 -3 -24 4 -38 -21 -21 -41 8 -10 8 -14 0 -14 -13 0 -12 -4 -16 88
-1 40 2 72 7 72 5 0 7 -4 4 -9z m44 -115 c0 -2 -7 -6 -15 -10 -8 -3 -15 -1
-15 4 0 6 7 10 15 10 8 0 15 -2 15 -4z m-13 -54 c-10 -10 -17 -25 -17 -32 0
-7 -3 -10 -7 -7 -8 9 17 57 30 57 6 0 3 -8 -6 -18z m-9 -176 c-2 -1 -12 -8
-22 -16 -18 -14 -18 -14 -6 7 8 12 18 19 23 16 4 -3 7 -6 5 -7z m-135 -267
c-8 -8 -16 -8 -30 0 -16 11 -16 11 5 6 14 -4 22 -2 22 6 0 7 3 9 7 6 4 -4 2
-12 -4 -18z m-581 -26 c-3 -16 -7 -22 -10 -15 -4 13 4 42 11 42 2 0 2 -12 -1
-27z m72 19 c3 -5 -1 -9 -9 -9 -8 0 -12 4 -9 9 3 4 7 8 9 8 2 0 6 -4 9 -8z
m-94 -18 c0 -2 -9 -8 -20 -14 -15 -8 -18 -8 -14 3 4 11 34 21 34 11z"/>
<path d="M710 1880 c-6 -11 -8 -20 -6 -20 3 0 10 9 16 20 6 11 8 20 6 20 -3 0
-10 -9 -16 -20z"/>
<path d="M962 1821 c-11 -7 -11 -9 0 -14 9 -3 15 1 15 9 0 8 -1 14 -1 14 -1 0
-7 -4 -14 -9z"/>
<path d="M1010 1800 c0 -5 5 -10 11 -10 5 0 7 5 4 10 -3 6 -8 10 -11 10 -2 0
-4 -4 -4 -10z"/>
<path d="M1930 966 c0 -2 8 -10 18 -17 15 -13 16 -12 3 4 -13 16 -21 21 -21
13z"/>
<path d="M555 2580 c-4 -6 -10 -8 -15 -5 -11 7 -30 -19 -22 -31 4 -7 16 0 30
18 13 15 21 28 18 28 -2 0 -8 -5 -11 -10z"/>
<path d="M568 2559 c-32 -29 -32 -30 -6 -18 15 6 25 16 22 20 -12 20 26 7 40
-13 9 -12 18 -19 21 -16 4 3 -5 17 -19 31 l-26 26 -32 -30z"/>
<path d="M630 2582 c0 -4 9 -13 20 -20 12 -7 19 -16 16 -21 -3 -4 2 -8 10 -8
10 0 6 9 -13 29 -28 30 -33 33 -33 20z"/>
<path d="M680 2580 c-13 -8 -13 -10 2 -10 9 0 20 5 23 10 8 13 -5 13 -25 0z"/>
<path d="M720 2575 c-7 -9 -8 -15 -2 -15 5 0 12 7 16 15 3 8 4 15 2 15 -2 0
-9 -7 -16 -15z"/>
<path d="M749 2566 c-10 -21 -15 -23 -38 -15 -17 7 -23 7 -16 0 6 -5 22 -12
37 -15 20 -3 25 -1 22 9 -4 11 1 13 23 9 15 -3 30 -10 32 -15 1 -6 10 -2 18 8
11 14 14 15 10 2 -3 -9 1 -16 8 -16 8 0 11 7 7 16 -4 12 0 11 19 -4 l24 -20
-22 25 c-12 14 -33 26 -45 27 -13 0 -17 -1 -10 -4 19 -7 4 -22 -17 -16 -13 3
-18 11 -14 21 4 13 1 12 -11 -3 -15 -17 -17 -17 -12 -2 8 25 -3 21 -15 -7z"/>
<path d="M876 2581 c-4 -6 -3 -11 2 -11 5 0 13 -10 19 -22 9 -21 10 -21 17 -3
4 11 4 16 0 12 -5 -4 -13 2 -20 14 -7 14 -14 18 -18 10z"/>
<path d="M939 2587 c-1 -1 -3 -15 -5 -32 -2 -20 0 -25 5 -16 5 8 7 20 4 27 -3
9 2 11 16 7 12 -3 21 -3 21 0 0 4 -38 17 -41 14z"/>
<path d="M996 2574 c-7 -18 10 -44 28 -44 6 0 3 5 -7 11 -12 7 -16 17 -12 30
8 23 0 26 -9 3z"/>
<path d="M1027 2559 c7 -7 15 -10 18 -7 3 3 -2 9 -12 12 -14 6 -15 5 -6 -5z"/>
<path d="M1076 2553 c-6 -14 -5 -15 5 -6 7 7 10 15 7 18 -3 3 -9 -2 -12 -12z"/>
<path d="M596 2542 c-3 -5 1 -9 9 -9 8 0 12 4 9 9 -3 4 -7 8 -9 8 -2 0 -6 -4
-9 -8z"/>
<path d="M956 2542 c-2 -4 4 -8 14 -8 10 0 16 4 14 8 -3 4 -9 8 -14 8 -5 0
-11 -4 -14 -8z"/>
<path d="M390 2520 c0 -5 5 -10 11 -10 5 0 7 5 4 10 -3 6 -8 10 -11 10 -2 0
-4 -4 -4 -10z"/>
<path d="M1355 2489 c-4 -6 -5 -12 -2 -15 2 -3 7 2 10 11 7 17 1 20 -8 4z"/>
<path d="M373 2475 c0 -8 4 -12 9 -9 4 3 8 9 8 15 0 5 -4 9 -8 9 -5 0 -9 -7
-9 -15z"/>
<path d="M385 2320 c-3 -6 1 -7 9 -4 18 7 21 14 7 14 -6 0 -13 -4 -16 -10z"/>
<path d="M1610 2220 c0 -5 5 -10 11 -10 5 0 7 5 4 10 -3 6 -8 10 -11 10 -2 0
-4 -4 -4 -10z"/>
<path d="M1784 2112 c3 -5 0 -12 -6 -15 -10 -3 -10 -7 -1 -19 7 -8 9 -19 5
-24 -4 -5 2 -1 14 8 14 13 23 15 31 7 13 -13 39 -1 68 32 20 23 5 18 -25 -7
-11 -9 -20 -10 -30 -3 -13 9 -12 10 2 6 9 -3 19 1 22 8 4 11 0 12 -17 6 -27
-9 -38 -8 -56 3 -9 6 -12 5 -7 -2z m51 -30 c11 -6 15 -12 8 -12 -6 0 -15 5
-18 10 -5 8 -11 8 -20 0 -8 -6 -16 -7 -19 -2 -13 22 15 24 49 4z"/>
<path d="M1660 2100 c0 -6 4 -9 9 -5 5 3 12 1 16 -5 3 -5 0 -10 -7 -10 -10 0
-9 -3 2 -9 16 -11 33 -4 25 10 -4 5 -1 9 6 9 20 0 3 11 -25 16 -15 2 -26 0
-26 -6z"/>
<path d="M1730 2099 c0 -5 5 -7 10 -4 6 3 10 8 10 11 0 2 -4 4 -10 4 -5 0 -10
-5 -10 -11z"/>
<path d="M2643 2104 c9 -3 15 -10 11 -15 -3 -5 -10 -6 -16 -3 -7 4 -8 2 -4 -4
4 -7 2 -12 -4 -12 -6 0 -8 -11 -6 -26 6 -31 17 -44 23 -26 3 6 8 10 12 8 3 -2
6 14 6 37 0 34 -4 42 -20 44 -16 1 -17 1 -2 -3z m13 -39 c-1 -8 -7 -20 -13
-26 -13 -13 -13 7 0 29 11 16 16 15 13 -3z"/>
<path d="M1750 2085 c0 -5 5 -17 10 -25 5 -8 10 -10 10 -5 0 6 -5 17 -10 25
-5 8 -10 11 -10 5z"/>
<path d="M460 2039 c0 -5 5 -7 10 -4 6 3 10 8 10 11 0 2 -4 4 -10 4 -5 0 -10
-5 -10 -11z"/>
<path d="M2642 1998 c-17 -17 -15 -24 7 -25 14 -1 19 4 18 18 -1 22 -8 24 -25
7z"/>
<path d="M557 1960 c9 -9 9 -17 2 -26 -7 -9 -5 -15 9 -23 14 -8 19 -7 19 5 0
7 -4 14 -9 14 -5 0 -7 4 -4 9 3 5 -2 15 -12 22 -14 11 -15 11 -5 -1z"/>
<path d="M641 1876 c-9 -11 -9 -16 1 -22 7 -4 10 -4 6 1 -4 4 -3 14 3 22 6 7
9 13 6 13 -2 0 -10 -6 -16 -14z"/>
<path d="M2630 1880 c0 -5 5 -10 10 -10 6 0 10 5 10 10 0 6 -4 10 -10 10 -5 0
-10 -4 -10 -10z"/>
<path d="M827 1799 c7 -7 15 -10 18 -7 3 3 -2 9 -12 12 -14 6 -15 5 -6 -5z"/>
<path d="M1223 1763 c4 -6 1 -14 -5 -16 -9 -4 -9 -6 1 -6 12 -1 11 -4 -3 -14
-16 -12 -16 -13 2 -13 13 0 18 7 17 23 0 12 -5 26 -9 30 -5 4 -6 3 -3 -4z"/>
<path d="M1175 1751 c-6 -11 13 -26 22 -17 4 3 1 6 -6 6 -7 0 -9 5 -6 10 3 6
4 10 1 10 -3 0 -7 -4 -11 -9z"/>
<path d="M1264 1555 c-18 -15 -18 -15 0 -8 15 5 17 3 11 -8 -5 -8 -4 -11 0 -6
8 7 17 37 11 37 -1 0 -11 -7 -22 -15z"/>
<path d="M2497 1539 c7 -7 15 -10 18 -7 3 3 -2 9 -12 12 -14 6 -15 5 -6 -5z"/>
<path d="M1247 1519 c7 -7 15 -10 18 -7 3 3 -2 9 -12 12 -14 6 -15 5 -6 -5z"/>
<path d="M2480 1520 c8 -5 20 -10 25 -10 6 0 3 5 -5 10 -8 5 -19 10 -25 10 -5
0 -3 -5 5 -10z"/>
<path d="M1275 1470 c3 -5 8 -10 11 -10 2 0 4 5 4 10 0 6 -5 10 -11 10 -5 0
-7 -4 -4 -10z"/>
<path d="M1249 1462 c11 -8 10 -11 -4 -20 -15 -8 -14 -9 10 -9 15 0 22 3 15 7
-6 4 -11 11 -10 16 1 5 -4 10 -12 12 -10 3 -10 1 1 -6z"/>
<path d="M2435 1461 c-3 -5 0 -13 6 -17 7 -4 9 -3 5 4 -3 5 0 13 6 15 9 4 10
6 1 6 -6 1 -14 -3 -18 -8z"/>
<path d="M2356 1432 c-3 -5 1 -9 9 -9 8 0 12 4 9 9 -3 4 -7 8 -9 8 -2 0 -6 -4
-9 -8z"/>
<path d="M1249 1409 c-1 -5 -2 -19 -2 -31 -1 -13 -6 -26 -11 -30 -7 -5 -6 -8
3 -8 11 0 11 -3 1 -15 -7 -9 -8 -15 -2 -15 5 0 13 7 16 16 4 9 9 14 13 11 3
-4 12 -2 20 4 10 9 10 15 2 25 -6 8 -16 11 -21 7 -6 -3 -8 0 -6 8 3 8 10 13
15 12 5 -1 10 4 10 11 0 14 -36 19 -38 5z m34 -54 c-4 -14 -30 -14 -30 0 0 7
7 12 16 10 9 -1 15 -6 14 -10z"/>
<path d="M2224 1389 c-3 -6 -1 -16 5 -22 9 -9 10 -7 5 8 -7 17 -6 18 8 7 13
-10 18 -10 24 -1 4 8 3 9 -4 5 -7 -4 -12 -2 -12 3 0 14 -17 14 -26 0z"/>
<path d="M1807 1346 c-16 -13 -16 -15 3 -37 10 -13 19 -19 20 -12 0 7 7 10 18
6 18 -7 17 -5 -12 17 -13 10 -17 10 -12 3 4 -7 2 -13 -3 -13 -12 0 -15 23 -4
33 3 4 16 -1 27 -10 21 -18 21 -18 2 5 -11 12 -20 22 -20 22 -1 0 -9 -7 -19
-14z"/>
<path d="M1976 1338 c3 -5 10 -6 15 -3 13 9 11 12 -6 12 -8 0 -12 -4 -9 -9z"/>
<path d="M1890 1322 c0 -5 7 -9 15 -9 8 0 12 4 9 9 -3 4 -9 8 -15 8 -5 0 -9
-4 -9 -8z"/>
<path d="M1820 1209 c0 -5 -4 -7 -10 -4 -14 9 -12 -1 3 -13 10 -8 13 -6 14 9
1 10 0 19 -3 19 -2 0 -4 -5 -4 -11z"/>
<path d="M1870 1140 c0 -5 5 -10 10 -10 6 0 10 5 10 10 0 6 -4 10 -10 10 -5 0
-10 -4 -10 -10z"/>
<path d="M1870 1105 c-11 -13 -10 -14 4 -9 9 3 16 10 16 15 0 13 -6 11 -20 -6z"/>
<path d="M975 740 c-3 -5 -1 -10 4 -10 6 0 11 5 11 10 0 6 -2 10 -4 10 -3 0
-8 -4 -11 -10z"/>
<path d="M1015 729 c-4 -6 -5 -12 -2 -15 2 -3 7 2 10 11 7 17 1 20 -8 4z"/>
<path d="M1965 710 c-8 -12 2 -30 17 -30 7 0 7 4 -1 13 -6 8 -8 17 -4 20 3 4
4 7 0 7 -3 0 -9 -4 -12 -10z"/>
<path d="M1939 609 c0 -2 -2 -11 -4 -20 -1 -9 3 -16 10 -16 7 0 12 6 11 13 -2
13 -15 31 -17 23z"/>
<path d="M1039 527 c6 -8 7 -18 3 -22 -4 -5 -2 -5 5 -1 14 8 6 36 -9 36 -7 0
-6 -5 1 -13z"/>
<path d="M1948 517 c13 -6 21 -16 18 -22 -2 -6 2 -12 9 -12 23 0 -4 43 -28 44
-22 1 -22 1 1 -10z"/>
<path d="M1930 500 c0 -5 5 -10 11 -10 5 0 7 5 4 10 -3 6 -8 10 -11 10 -2 0
-4 -4 -4 -10z"/>
<path d="M1471 314 c0 -11 3 -14 6 -6 3 7 2 16 -1 19 -3 4 -6 -2 -5 -13z"/>
<path d="M1530 320 c0 -5 5 -10 11 -10 5 0 7 5 4 10 -3 6 -8 10 -11 10 -2 0
-4 -4 -4 -10z"/>
<path d="M1668 313 c7 -3 16 -2 19 1 4 3 -2 6 -13 5 -11 0 -14 -3 -6 -6z"/>
<path d="M1296 302 c-3 -5 1 -9 9 -9 8 0 12 4 9 9 -3 4 -7 8 -9 8 -2 0 -6 -4
-9 -8z"/>
<path d="M1633 290 c1 -21 10 -18 13 5 1 8 -2 15 -6 15 -5 0 -8 -9 -7 -20z"/>
<path d="M1696 293 c-6 -14 -5 -15 5 -6 7 7 10 15 7 18 -3 3 -9 -2 -12 -12z"/>
<path d="M1548 293 c7 -3 16 -2 19 1 4 3 -2 6 -13 5 -11 0 -14 -3 -6 -6z"/>
<path d="M1590 290 c8 -5 20 -10 25 -10 6 0 3 5 -5 10 -8 5 -19 10 -25 10 -5
0 -3 -5 5 -10z"/>
<path d="M1450 279 c0 -5 5 -7 10 -4 6 3 10 8 10 11 0 2 -4 4 -10 4 -5 0 -10
-5 -10 -11z"/>
<path d="M1490 279 c0 -5 5 -7 10 -4 6 3 10 8 10 11 0 2 -4 4 -10 4 -5 0 -10
-5 -10 -11z"/>
</g>
</svg>
